<svg xmlns="http://www.w3.org/2000/svg" height="60" viewBox="0 96 960 960" width="60" fill="#3399ff" ><path d="M637.655 902q-39.06 0-66.857-27.906Q543 846.188 543 807V345q0-39.188 27.815-67.094Q598.631 250 637.69 250h55q39.06 0 66.685 27.906T787 345v462q0 39.188-27.643 67.094Q731.715 902 692.655 902h-55Zm-370 0q-39.06 0-66.857-27.906Q173 846.188 173 807V345q0-39.188 27.815-67.094Q228.631 250 267.69 250h55q39.06 0 66.685 27.906T417 345v462q0 39.188-27.643 67.094Q361.715 902 322.655 902h-55Z"/></svg>