<?xml version="1.0" standalone="no"?><!DOCTYPE svg PUBLIC "-//W3C//DTD SVG 1.1//EN" "http://www.w3.org/Graphics/SVG/1.1/DTD/svg11.dtd"><svg t="1745053737431" class="icon" viewBox="0 0 1030 1024" version="1.1" xmlns="http://www.w3.org/2000/svg" p-id="14328" xmlns:xlink="http://www.w3.org/1999/xlink" width="201.171875" height="200"><path d="M1010.75121 25.4551c-28.194856-31.495717-76.607487-34.108899-108.103205-5.914043L695.381428 226.395026l-7.564473 0.825216c-79.633277-46.349593-171.919855-46.074521-242.888371 21.730669-2.200574 2.063038-2.200574 5.501435-0.137536 7.70201l328.298154 328.298154c2.200574 2.063038 5.638971 2.063038 7.70201-0.137536 67.667655-71.106052 67.805191-163.255094 21.73067-242.88837 0.137536-2.750718 0.550144-4.67622 0.825215-7.70201L1010.613674 127.781798c26.269354-29.020071 26.269354-73.16909 0.137536-102.326698zM316.332533 232.996749c36.171937 0 65.329545-29.295143 65.329544-65.329545S352.366934 102.337659 316.332533 102.337659s-65.329545 29.295143-65.329545 65.329545 29.157607 65.329545 65.329545 65.329545zM716.286883 845.994182c-45.249306 0-81.833851 36.584545-81.833851 81.833851s36.584545 81.833851 81.833851 81.833851 81.833851-36.584545 81.83385-81.833851-36.584545-81.833851-81.83385-81.833851zM871.839967 756.87093c-24.618923 1.100287-43.598875 21.868206-42.636124 46.487129 1.100287 23.793708 20.630383 42.636124 44.561626 42.636123h1.925503c24.618923-1.100287 43.598875-21.868206 42.636124-46.487128-1.100287-24.618923-22.005741-43.736411-46.487129-42.636124zM713.948772 636.664567L386.613369 309.4667l0.137536-0.137536c-2.33811-2.613182-6.189115-3.025789-9.077368-1.100287-113.60464 78.395454-347.690714 127.220692-375.885571 132.722128-0.275072 0-0.550144 0.137536-0.825215 0.412608-0.962751 0.687679-1.237823 2.063038-0.412607 3.025789l59.002894 110.716386c0.550144 0.962751 1.787966 1.512895 2.888253 1.100287l159.266554-56.527248s-113.192032 96.000047-133.134736 112.229281c-0.137536 0-0.137536 0.137536-0.137536 0.137536-0.550144 0.550144-0.687679 1.375359-0.137536 1.925503 20.217775 36.447009 90.361076 114.017248 100.676267 125.432726 0.687679 0.825215 1.925502 0.962751 2.888254 0.412607l210.292366-126.120405s-123.644759 160.779448-147.438467 189.661984c-0.687679 0.687679-0.550144 1.237823 0 2.063038 36.034402 48.962775 153.077439 127.495764 153.077438 127.495764l29.845287-40.985693c40.022942-56.252176 84.034425-109.478563 131.759377-159.40409 10.177655-10.177655-89.810932 199.289496-100.26366 221.157701-0.550144 1.100287-0.137536 2.33811 0.962752 3.02579l111.128994 66.979975c0.687679 0.412608 1.512895 0.412608 2.200574 0 0.687679-0.275072 1.237823-0.962751 1.237823-1.787966 23.793708-198.051673 113.192032-347.965786 130.796625-376.160642 1.512895-3.025789 0.962751-6.739258-1.512895-9.077369z" fill="#44aaff" p-id="14329"></path></svg>